<?xml version="1.0" encoding="UTF-8" standalone="no"?>
<!DOCTYPE svg PUBLIC "-//W3C//DTD SVG 1.1//EN"
 "http://www.w3.org/Graphics/SVG/1.1/DTD/svg11.dtd">
<!-- Generated by graphviz version 2.40.1 (20161225.0304)
 -->
<!-- Title: dependencies Pages: 1 -->
<svg width="504pt" height="284pt"
 viewBox="0.00 0.00 504.00 284.00" xmlns="http://www.w3.org/2000/svg" xmlns:xlink="http://www.w3.org/1999/xlink">
<g id="graph0" class="graph" transform="scale(1 1) rotate(0) translate(4 280)">
<title>dependencies</title>
<polygon fill="#ffffff" stroke="transparent" points="-4,4 -4,-280 500,-280 500,4 -4,4"/>
<text text-anchor="start" x="227.0091" y="-42.4" font-family="sans-serif" font-weight="bold" font-size="14.00" fill="#000000">Legend</text>
<polygon fill="#ffffb3" stroke="transparent" points="14,-10 14,-30 34,-30 34,-10 14,-10"/>
<text text-anchor="start" x="37.629" y="-15.4" font-family="sans-serif" font-size="14.00" fill="#000000"> &#160;Declarations</text>
<polygon fill="#8dd3c7" stroke="transparent" points="127,-10 127,-30 147,-30 147,-10 127,-10"/>
<text text-anchor="start" x="150.7251" y="-15.4" font-family="sans-serif" font-size="14.00" fill="#000000"> &#160;Module</text>
<polygon fill="#80b1d3" stroke="transparent" points="213,-10 213,-30 233,-30 233,-10 213,-10"/>
<text text-anchor="start" x="236.7812" y="-15.4" font-family="sans-serif" font-size="14.00" fill="#000000"> &#160;Bootstrap</text>
<polygon fill="#fdb462" stroke="transparent" points="310,-10 310,-30 330,-30 330,-10 310,-10"/>
<text text-anchor="start" x="333.6732" y="-15.4" font-family="sans-serif" font-size="14.00" fill="#000000"> &#160;Providers</text>
<polygon fill="#fb8072" stroke="transparent" points="406,-10 406,-30 426,-30 426,-10 406,-10"/>
<text text-anchor="start" x="429.7258" y="-15.4" font-family="sans-serif" font-size="14.00" fill="#000000"> &#160;Exports</text>
<g id="clust1" class="cluster">
<title>cluster_ArhsUiModule</title>
<polygon fill="none" stroke="#000000" stroke-dasharray="1,5" points="108,-70 108,-268 242,-268 242,-70 108,-70"/>
</g>
<g id="clust3" class="cluster">
<title>cluster_ArhsUiModule_imports</title>
<polygon fill="none" stroke="#000000" points="119,-78 119,-130 233,-130 233,-78 119,-78"/>
</g>
<g id="clust4" class="cluster">
<title>cluster_ArhsUiModule_exports</title>
<polygon fill="none" stroke="#000000" points="116,-208 116,-260 234,-260 234,-208 116,-208"/>
</g>
<g id="clust7" class="cluster">
<title>cluster_ArhsUiModuleTns</title>
<polygon fill="none" stroke="#000000" stroke-dasharray="1,5" points="250,-143 250,-195 388,-195 388,-143 250,-143"/>
</g>
<!-- SharedModule -->
<g id="node1" class="node">
<title>SharedModule</title>
<polygon fill="#8dd3c7" stroke="#000000" points="225.4231,-122 222.4231,-126 201.4231,-126 198.4231,-122 126.5769,-122 126.5769,-86 225.4231,-86 225.4231,-122"/>
<text text-anchor="middle" x="176" y="-99.8" font-family="Times,serif" font-size="14.00" fill="#000000">SharedModule</text>
</g>
<!-- ArhsUiModule -->
<g id="node2" class="node">
<title>ArhsUiModule</title>
<polygon fill="#8dd3c7" stroke="#000000" points="225.2591,-187 222.2591,-191 201.2591,-191 198.2591,-187 124.7409,-187 124.7409,-151 225.2591,-151 225.2591,-187"/>
<text text-anchor="middle" x="175" y="-164.8" font-family="Times,serif" font-size="14.00" fill="#000000">ArhsUiModule</text>
</g>
<!-- SharedModule&#45;&gt;ArhsUiModule -->
<g id="edge1" class="edge">
<title>SharedModule&#45;&gt;ArhsUiModule</title>
<path fill="none" stroke="#000000" d="M176,-122.1061C176,-122.1061 176,-140.991 176,-140.991"/>
<polygon fill="#000000" stroke="#000000" points="172.5001,-140.9909 176,-150.991 179.5001,-140.991 172.5001,-140.9909"/>
</g>
<!-- ArhsUiModuleTns -->
<g id="node4" class="node">
<title>ArhsUiModuleTns</title>
<polygon fill="#8dd3c7" stroke="#000000" points="379.7562,-187 376.7562,-191 355.7562,-191 352.7562,-187 258.2438,-187 258.2438,-151 379.7562,-151 379.7562,-187"/>
<text text-anchor="middle" x="319" y="-164.8" font-family="Times,serif" font-size="14.00" fill="#000000">ArhsUiModuleTns</text>
</g>
<!-- SharedModule&#45;&gt;ArhsUiModuleTns -->
<g id="edge3" class="edge">
<title>SharedModule&#45;&gt;ArhsUiModuleTns</title>
<path fill="none" stroke="#000000" d="M225.2125,-104C266.5773,-104 319,-104 319,-104 319,-104 319,-140.8939 319,-140.8939"/>
<polygon fill="#000000" stroke="#000000" points="315.5001,-140.8938 319,-150.8939 322.5001,-140.8939 315.5001,-140.8938"/>
</g>
<!-- SharedModule  -->
<g id="node3" class="node">
<title>SharedModule </title>
<polygon fill="#fb8072" stroke="#000000" points="225.9222,-252 124.0778,-252 124.0778,-216 225.9222,-216 225.9222,-252"/>
<text text-anchor="middle" x="175" y="-229.8" font-family="Times,serif" font-size="14.00" fill="#000000">SharedModule </text>
</g>
<!-- ArhsUiModule&#45;&gt;SharedModule  -->
<g id="edge2" class="edge">
<title>ArhsUiModule&#45;&gt;SharedModule </title>
<path fill="none" stroke="#000000" stroke-dasharray="5,2" d="M175,-187.1061C175,-187.1061 175,-205.991 175,-205.991"/>
<polygon fill="#000000" stroke="#000000" points="171.5001,-205.9909 175,-215.991 178.5001,-205.991 171.5001,-205.9909"/>
</g>
<!-- ArhsUiModuleTns&#45;&gt;SharedModule  -->
<g id="edge4" class="edge">
<title>ArhsUiModuleTns&#45;&gt;SharedModule </title>
<path fill="none" stroke="#000000" stroke-dasharray="5,2" d="M319,-187.1061C319,-206.3391 319,-234 319,-234 319,-234 236.1745,-234 236.1745,-234"/>
<polygon fill="#000000" stroke="#000000" points="236.1745,-230.5001 226.1745,-234 236.1744,-237.5001 236.1745,-230.5001"/>
</g>
</g>
</svg>
